<?xml version="1.0" encoding="UTF-8" standalone="no"?>
<!-- Created with Inkscape (http://www.inkscape.org/) -->

<svg
   xmlns:dc="http://purl.org/dc/elements/1.1/"
   xmlns:cc="http://creativecommons.org/ns#"
   xmlns:rdf="http://www.w3.org/1999/02/22-rdf-syntax-ns#"
   xmlns:svg="http://www.w3.org/2000/svg"
   xmlns="http://www.w3.org/2000/svg"
   xmlns:sodipodi="http://sodipodi.sourceforge.net/DTD/sodipodi-0.dtd"
   xmlns:inkscape="http://www.inkscape.org/namespaces/inkscape"
   width="210mm"
   height="297mm"
   viewBox="0 0 210 297"
   version="1.1"
   id="svg8"
   sodipodi:docname="logo_ideas.svg"
   inkscape:version="0.92.3 (2405546, 2018-03-11)">
  <defs
     id="defs2" />
  <sodipodi:namedview
     id="base"
     pagecolor="#ffffff"
     bordercolor="#666666"
     borderopacity="1.0"
     inkscape:pageopacity="0.0"
     inkscape:pageshadow="2"
     inkscape:zoom="1.4"
     inkscape:cx="-83.157539"
     inkscape:cy="555.16196"
     inkscape:document-units="mm"
     inkscape:current-layer="layer1"
     showgrid="false"
     inkscape:window-width="2560"
     inkscape:window-height="1377"
     inkscape:window-x="1912"
     inkscape:window-y="-8"
     inkscape:window-maximized="1" />
  <metadata
     id="metadata5">
    <rdf:RDF>
      <cc:Work
         rdf:about="">
        <dc:format>image/svg+xml</dc:format>
        <dc:type
           rdf:resource="http://purl.org/dc/dcmitype/StillImage" />
        <dc:title />
      </cc:Work>
    </rdf:RDF>
  </metadata>
  <g
     inkscape:label="Ebene 1"
     inkscape:groupmode="layer"
     id="layer1">
    <path
       inkscape:connector-curvature="0"
       d="m 122.19887,32.964097 c 1.6312,0 3.06667,0.891726 3.80615,2.240187 l 7.78627,14.115347 c 0.80473,1.435459 -0.23924,3.218909 -1.89219,3.218909 H 99.71002 l -2.044442,4.349876 H 90.553531 V 52.53854 h 4.349876 l 7.829773,-16.50778 -2.936162,-5.306849 c -1.587705,-2.914416 0.500232,-6.459565 3.806142,-6.459565 h 26.09925 v 4.349876 h -26.09925 l 2.39243,4.349875 z m -20.42266,15.224566 h 26.4255 l -6.00284,-10.87469 h -15.26806 z m 1.82695,-26.099256 c -2.39243,0 -4.328127,-1.957443 -4.328127,-4.349875 0,-2.392432 1.935697,-4.349876 4.328127,-4.349876 2.39243,0 4.34987,1.957444 4.34987,4.349876 0,2.392432 -1.95744,4.349875 -4.34987,4.349875 z m 21.74937,0 c -2.39243,0 -4.32813,-1.957443 -4.32813,-4.349875 0,-2.392432 1.9357,-4.349876 4.32813,-4.349876 2.39244,0 4.34988,1.957444 4.34988,4.349876 0,2.392432 -1.95744,4.349875 -4.34988,4.349875 z"
       id="path923"
       style="fill:#364a54;fill-opacity:1;stroke-width:2.17493796" />
    <path
       inkscape:connector-curvature="0"
       d="m 103.60316,22.089407 c -2.39243,0 -4.328127,-1.957443 -4.328127,-4.349875 0,-2.392432 1.935697,-4.349876 4.328127,-4.349876 2.39243,0 4.34987,1.957444 4.34987,4.349876 0,2.392432 -1.95744,4.349875 -4.34987,4.349875 z m 21.74937,0 c -2.39243,0 -4.32813,-1.957443 -4.32813,-4.349875 0,-2.392432 1.9357,-4.349876 4.32813,-4.349876 2.39244,0 4.34988,1.957444 4.34988,4.349876 0,2.392432 -1.95744,4.349875 -4.34988,4.349875 z"
       id="path923-4"
       style="fill:#faab1a;fill-opacity:1;stroke-width:2.1749382"
       sodipodi:nodetypes="ssssssssss" />
    <path
       style="opacity:0.3;stroke-width:2.22520518"
       inkscape:connector-curvature="0"
       d="m 43.710191,38.645123 6.141581,11.126025 H 22.815525 l 5.273739,-11.126025 z"
       id="path2408" />
    <path
       inkscape:connector-curvature="0"
       d="m 43.710191,34.194712 c 1.668899,0 3.137542,0.912334 3.894098,2.291961 l 7.966235,14.441583 c 0.823341,1.468633 -0.244922,3.293303 -1.935907,3.293303 H 20.701579 l -2.091695,4.450408 h -7.276431 v -4.450408 h 4.450431 l 8.010736,-16.889308 -3.004038,-5.4295 c -1.624398,-2.981774 0.511798,-6.608858 3.894098,-6.608858 h 26.702487 v 4.450408 H 24.68468 l 2.447739,4.450411 z M 22.815525,49.771148 H 49.851772 L 43.710191,38.645123 H 28.089264 Z"
       id="path2410"
       style="fill:#364a54;fill-opacity:1;stroke-width:2.22520518"
       sodipodi:nodetypes="sccscccccccsccccsccccc" />
    <path
       inkscape:connector-curvature="0"
       d="m 24.68468,23.068687 c -2.447706,0 -4.428147,-2.002685 -4.428147,-4.450411 0,-2.447725 1.980441,-4.450411 4.428147,-4.450411 2.447739,0 4.450431,2.002686 4.450431,4.450411 0,2.447726 -2.002692,4.450411 -4.450431,4.450411 z m 22.252056,0 c -2.447706,0 -4.428147,-2.002685 -4.428147,-4.450411 0,-2.447725 1.980441,-4.450411 4.428147,-4.450411 2.447739,0 4.450431,2.002686 4.450431,4.450411 0,2.447726 -2.002692,4.450411 -4.450431,4.450411 z"
       id="path2410-0"
       style="fill:#faab1a;fill-opacity:1;stroke-width:2.22520518"
       sodipodi:nodetypes="ssssssssss" />
    <path
       style="opacity:0.3;fill:#faab1a;fill-opacity:1;stroke-width:2.22520518"
       inkscape:connector-curvature="0"
       d="m 126.35754,101.38941 6.14159,11.12602 h -27.03625 l 5.27374,-11.12602 z"
       id="path2408-4" />
    <path
       inkscape:connector-curvature="0"
       d="m 126.35754,96.938986 c 1.6689,0 3.13755,0.912342 3.8941,2.291972 l 7.96624,14.441582 c 0.82334,1.46863 -0.24492,3.2933 -1.93591,3.2933 h -32.93304 l -2.0917,4.45041 h -7.276426 v -4.45041 h 4.450431 l 8.010735,-16.88931 -3.00403,-5.429504 c -1.6244,-2.98177 0.51179,-6.60885 3.89409,-6.60885 h 26.70249 v 4.4504 h -26.70249 l 2.44774,4.45041 z m -20.89466,15.576444 h 27.03625 l -6.14159,-11.12602 h -15.62092 z"
       id="path2410-2"
       style="fill:#364a54;fill-opacity:1;stroke-width:2.22520518"
       sodipodi:nodetypes="sccscccccccsccccsccccc" />
    <path
       inkscape:connector-curvature="0"
       d="m 107.33203,85.812966 c -2.4477,0 -4.42814,-2.002685 -4.42814,-4.450411 0,-2.447725 1.98044,-4.450411 4.42814,-4.450411 2.44774,0 4.45044,2.002686 4.45044,4.450411 0,2.447726 -2.0027,4.450411 -4.45044,4.450411 z m 22.25206,0 c -2.44771,0 -4.42815,-2.002685 -4.42815,-4.450411 0,-2.447725 1.98044,-4.450411 4.42815,-4.450411 2.44774,0 4.45043,2.002686 4.45043,4.450411 0,2.447726 -2.00269,4.450411 -4.45043,4.450411 z"
       id="path2410-0-5"
       style="opacity:1;fill:#b3b3b3;fill-opacity:1;stroke-width:2.22520518"
       sodipodi:nodetypes="ssssssssss" />
    <path
       style="opacity:1;fill:#faab1a;fill-opacity:1;stroke-width:2.22520518"
       inkscape:connector-curvature="0"
       d="m 130.05751,158.54479 6.14159,11.12602 h -27.03626 l 5.27375,-11.12602 z"
       id="path2408-4-6" />
    <path
       inkscape:connector-curvature="0"
       d="m 130.05751,154.09437 c 1.66889,0 3.13755,0.91234 3.8941,2.29197 l 7.96624,14.44158 c 0.82334,1.46863 -0.24492,3.2933 -1.93591,3.2933 h -32.93305 l -2.09169,4.45041 h -7.276431 v -4.45041 h 4.450431 l 8.01073,-16.88931 -3.00403,-5.4295 c -1.6244,-2.98177 0.51179,-6.60885 3.89409,-6.60885 h 26.7025 v 4.4504 h -26.7025 l 2.44775,4.45041 z m -20.89467,15.57644 h 27.03626 l -6.14159,-11.12602 h -15.62092 z"
       id="path2410-2-5"
       style="fill:#364a54;fill-opacity:1;stroke-width:2.22520518"
       sodipodi:nodetypes="sccscccccccsccccsccccc" />
    <path
       inkscape:connector-curvature="0"
       d="m 111.03199,142.96835 c -2.4477,0 -4.42814,-2.00269 -4.42814,-4.45041 0,-2.44773 1.98044,-4.45041 4.42814,-4.45041 2.44775,0 4.45045,2.00268 4.45045,4.45041 0,2.44772 -2.0027,4.45041 -4.45045,4.45041 z m 22.25206,0 c -2.4477,0 -4.42814,-2.00269 -4.42814,-4.45041 0,-2.44773 1.98044,-4.45041 4.42814,-4.45041 2.44775,0 4.45044,2.00268 4.45044,4.45041 0,2.44772 -2.00269,4.45041 -4.45044,4.45041 z"
       id="path2410-0-5-8"
       style="opacity:1;fill:#b3b3b3;fill-opacity:1;stroke-width:2.22520518"
       sodipodi:nodetypes="ssssssssss" />
    <path
       style="opacity:0.3;stroke-width:2.22520518"
       inkscape:connector-curvature="0"
       d="m 45.268216,101.54365 6.141582,11.12603 H 24.373551 l 5.273739,-11.12603 z"
       id="path2408-2-8" />
    <path
       inkscape:connector-curvature="0"
       d="m 45.268216,97.093241 c 1.668899,0 3.137543,0.91234 3.894101,2.29196 l 7.966236,14.441589 c 0.823338,1.46863 -0.24492,3.2933 -1.935911,3.2933 H 22.259605 l -2.091695,4.45041 h -7.276431 v -4.45041 h 4.450431 l 8.010736,-16.88931 -3.004038,-5.429499 c -1.624398,-2.98177 0.511798,-6.60886 3.894098,-6.60886 h 26.702485 v 4.45041 H 26.242706 l 2.447739,4.45041 z M 24.373551,112.66968 H 51.409798 L 45.268216,101.54365 H 29.64729 Z"
       id="path2410-1-4"
       style="fill:#364a54;fill-opacity:1;stroke-width:2.22520518"
       sodipodi:nodetypes="sccscccccccsccccsccccc" />
    <path
       inkscape:connector-curvature="0"
       d="m 26.242706,85.967221 c -2.447706,0 -4.428147,-2.00269 -4.428147,-4.45041 0,-2.44773 1.980441,-4.45041 4.428147,-4.45041 2.447739,0 4.450431,2.00268 4.450431,4.45041 0,2.44772 -2.002692,4.45041 -4.450431,4.45041 z m 22.252056,0 c -2.447705,0 -4.428146,-2.00269 -4.428146,-4.45041 0,-2.44773 1.980441,-4.45041 4.428146,-4.45041 2.44774,0 4.450429,2.00268 4.450429,4.45041 0,2.44772 -2.002689,4.45041 -4.450429,4.45041 z"
       id="path2410-0-0-2"
       style="fill:#faab1a;fill-opacity:1;stroke-width:2.22520518"
       sodipodi:nodetypes="ssssssssss" />
    <path
       inkscape:connector-curvature="0"
       d="m 25.571945,106.60473 h 25.379561 v 2.24741 H 25.571945 Z"
       id="path2410-9-4-8-4"
       style="fill:#364a54;fill-opacity:1;stroke-width:1.54161727"
       sodipodi:nodetypes="ccccc" />
  </g>
</svg>
