<?xml version="1.0" encoding="UTF-8" standalone="no"?>
<!-- Created with Inkscape (http://www.inkscape.org/) -->

<svg
   xmlns:dc="http://purl.org/dc/elements/1.1/"
   xmlns:cc="http://creativecommons.org/ns#"
   xmlns:rdf="http://www.w3.org/1999/02/22-rdf-syntax-ns#"
   xmlns:svg="http://www.w3.org/2000/svg"
   xmlns="http://www.w3.org/2000/svg"
   xmlns:sodipodi="http://sodipodi.sourceforge.net/DTD/sodipodi-0.dtd"
   xmlns:inkscape="http://www.inkscape.org/namespaces/inkscape"
   width="210mm"
   height="297mm"
   viewBox="0 0 210 297"
   version="1.1"
   id="svg7537"
   inkscape:version="0.92.3 (2405546, 2018-03-11)"
   sodipodi:docname="logo_variations.svg">
  <defs
     id="defs7531" />
  <sodipodi:namedview
     id="base"
     pagecolor="#ffffff"
     bordercolor="#666666"
     borderopacity="1.0"
     inkscape:pageopacity="0.0"
     inkscape:pageshadow="2"
     inkscape:zoom="0.7"
     inkscape:cx="391.08068"
     inkscape:cy="600.2123"
     inkscape:document-units="mm"
     inkscape:current-layer="layer1"
     showgrid="false"
     inkscape:window-width="2560"
     inkscape:window-height="1377"
     inkscape:window-x="1912"
     inkscape:window-y="-8"
     inkscape:window-maximized="1" />
  <metadata
     id="metadata7534">
    <rdf:RDF>
      <cc:Work
         rdf:about="">
        <dc:format>image/svg+xml</dc:format>
        <dc:type
           rdf:resource="http://purl.org/dc/dcmitype/StillImage" />
        <dc:title></dc:title>
      </cc:Work>
    </rdf:RDF>
  </metadata>
  <g
     inkscape:label="Ebene 1"
     inkscape:groupmode="layer"
     id="layer1">
    <path
       style="opacity:0.3;stroke-width:2.22520518"
       inkscape:connector-curvature="0"
       d="m 48.670001,37.665678 6.141582,11.12603 H 27.775336 l 5.273739,-11.12603 z"
       id="path2408-2" />
    <path
       inkscape:connector-curvature="0"
       d="m 48.670001,33.215268 c 1.668899,0 3.137543,0.91234 3.894101,2.29196 l 7.966236,14.44159 c 0.823338,1.46863 -0.24492,3.2933 -1.935911,3.2933 H 25.661391 l -2.091696,4.45041 h -7.276434 v -4.45041 h 4.450434 l 8.010736,-16.88931 -3.004038,-5.4295 c -1.624398,-2.98177 0.511799,-6.60886 3.894098,-6.60886 h 26.702485 v 4.45041 H 29.644491 l 2.447739,4.45041 z M 27.775336,48.791708 H 54.811583 L 48.670001,37.665678 H 33.049075 Z"
       id="path2410-1"
       style="fill:#364a54;fill-opacity:1;stroke-width:2.22520518"
       sodipodi:nodetypes="sccscccccccsccccsccccc" />
    <path
       inkscape:connector-curvature="0"
       d="m 29.644491,22.089248 c -2.447706,0 -4.428147,-2.00269 -4.428147,-4.45041 0,-2.44773 1.980441,-4.45041 4.428147,-4.45041 2.447739,0 4.450431,2.00268 4.450431,4.45041 0,2.44772 -2.002692,4.45041 -4.450431,4.45041 z m 22.252056,0 c -2.447705,0 -4.428146,-2.00269 -4.428146,-4.45041 0,-2.44773 1.980441,-4.45041 4.428146,-4.45041 2.44774,0 4.450429,2.00268 4.450429,4.45041 0,2.44772 -2.002689,4.45041 -4.450429,4.45041 z"
       id="path2410-0-0"
       style="fill:#faab1a;fill-opacity:1;stroke-width:2.22520518"
       sodipodi:nodetypes="ssssssssss" />
    <path
       inkscape:connector-curvature="0"
       d="m 28.97373,42.726758 h 25.379561 v 2.24741 H 28.97373 Z"
       id="path2410-9-4-8"
       style="fill:#364a54;fill-opacity:1;stroke-width:1.54161727"
       sodipodi:nodetypes="ccccc" />
    <rect
       style="opacity:1;fill:#344955;fill-opacity:1;fill-rule:nonzero;stroke:none;stroke-width:0.14232416;stroke-linecap:square;stroke-linejoin:round;stroke-miterlimit:4;stroke-dasharray:none;stroke-dashoffset:0;stroke-opacity:1;paint-order:normal"
       id="rect8130"
       width="90.337097"
       height="81.78447"
       x="-3.6191642e-007"
       y="63.940971" />
    <path
       inkscape:connector-curvature="0"
       d="m 47.158099,89.722707 c 1.668899,0 3.137543,0.91234 3.8941,2.29196 l 7.966237,14.441593 c 0.823338,1.46863 -0.24492,3.2933 -1.935912,3.2933 H 24.149489 l -2.091696,4.45041 h -7.276434 v -4.45041 h 4.450434 l 8.010736,-16.889313 -3.004038,-5.4295 c -1.624398,-2.98177 0.511799,-6.60886 3.894098,-6.60886 h 26.702485 v 4.45041 H 28.132589 l 2.447739,4.45041 z M 26.263434,105.29915 H 53.299681 L 47.158099,94.173117 H 31.537173 Z"
       id="path2410-1-6"
       style="fill:#ffffff;fill-opacity:1;stroke-width:2.22520518"
       sodipodi:nodetypes="sccscccccccsccccsccccc" />
    <path
       inkscape:connector-curvature="0"
       d="m 28.132589,78.596687 c -2.447706,0 -4.428147,-2.00269 -4.428147,-4.45041 0,-2.44773 1.980441,-4.45041 4.428147,-4.45041 2.447739,0 4.450431,2.00268 4.450431,4.45041 0,2.44772 -2.002692,4.45041 -4.450431,4.45041 z m 22.252056,0 c -2.447706,0 -4.428146,-2.00269 -4.428146,-4.45041 0,-2.44773 1.98044,-4.45041 4.428146,-4.45041 2.44774,0 4.450429,2.00268 4.450429,4.45041 0,2.44772 -2.002689,4.45041 -4.450429,4.45041 z"
       id="path2410-0-0-6"
       style="fill:#ffffff;fill-opacity:1;stroke-width:2.22520518;stroke:none;stroke-opacity:1"
       sodipodi:nodetypes="ssssssssss" />
    <path
       inkscape:connector-curvature="0"
       d="m 27.461828,99.234196 h 25.37956 v 2.247414 h -25.37956 z"
       id="path2410-9-4-8-6"
       style="fill:#ffffff;fill-opacity:1;stroke-width:1.54161727"
       sodipodi:nodetypes="ccccc" />
    <text
       xml:space="preserve"
       style="font-style:normal;font-weight:normal;font-size:10.58333302px;line-height:1.25;font-family:sans-serif;letter-spacing:0px;word-spacing:0px;fill:#ffffff;fill-opacity:1;stroke:none;stroke-width:0.26458332"
       x="-35.385807"
       y="-125.40108"
       id="text8155"
       transform="rotate(170.7452)"><tspan
         sodipodi:role="line"
         id="tspan8153"
         x="-35.385807"
         y="-125.40108"
         style="fill:#ffffff;stroke-width:0.26458332">QASH</tspan></text>
  </g>
</svg>
