<?xml version="1.0" standalone="no"?>
<!DOCTYPE svg PUBLIC "-//W3C//DTD SVG 20010904//EN"
 "http://www.w3.org/TR/2001/REC-SVG-20010904/DTD/svg10.dtd">
<svg version="1.0" xmlns="http://www.w3.org/2000/svg"
 width="520.000000pt" height="520.000000pt" viewBox="0 0 520.000000 520.000000"
 preserveAspectRatio="xMidYMid meet">
<metadata>
Created by potrace 1.11, written by Peter Selinger 2001-2013
</metadata>
<g transform="translate(0.000000,520.000000) scale(0.100000,-0.100000)"
fill="#000000" stroke="none">
<path d="M2408 5195 c-2 -2 -32 -6 -68 -9 -131 -12 -190 -22 -338 -57 -109
-25 -301 -84 -357 -109 -11 -5 -42 -19 -70 -31 -93 -40 -270 -131 -313 -160
-24 -16 -45 -29 -48 -29 -13 0 -166 -113 -273 -201 -419 -348 -710 -800 -854
-1329 -14 -48 -48 -213 -61 -294 -21 -124 -28 -479 -13 -626 4 -41 8 -82 9
-90 0 -8 5 -37 10 -65 5 -27 11 -66 14 -85 5 -30 24 -116 39 -173 3 -9 7 -25
9 -35 12 -52 83 -250 119 -332 136 -312 304 -558 546 -801 134 -133 206 -195
346 -295 328 -234 721 -389 1135 -449 178 -26 568 -26 710 -1 14 2 59 10 100
16 275 43 633 175 865 318 28 17 63 39 79 48 172 97 474 367 628 560 249 314
419 660 507 1035 11 46 23 100 26 119 3 19 8 48 11 63 19 95 29 229 29 417 0
246 -12 356 -61 579 -82 368 -245 709 -493 1031 -84 109 -322 347 -431 432
-276 213 -559 359 -876 452 -122 36 -289 72 -379 82 -27 3 -61 8 -75 11 -28 5
-466 13 -472 8z"/>
</g>
</svg>
