<?xml version="1.0" encoding="UTF-8" standalone="no"?>
<!-- Created with Inkscape (http://www.inkscape.org/) -->

<svg
   xmlns:dc="http://purl.org/dc/elements/1.1/"
   xmlns:cc="http://creativecommons.org/ns#"
   xmlns:rdf="http://www.w3.org/1999/02/22-rdf-syntax-ns#"
   xmlns:svg="http://www.w3.org/2000/svg"
   xmlns="http://www.w3.org/2000/svg"
   xmlns:sodipodi="http://sodipodi.sourceforge.net/DTD/sodipodi-0.dtd"
   xmlns:inkscape="http://www.inkscape.org/namespaces/inkscape"
   width="210mm"
   height="297mm"
   viewBox="0 0 210 297"
   version="1.1"
   id="svg8"
   inkscape:version="0.92.3 (2405546, 2018-03-11)"
   sodipodi:docname="icons.svg">
  <defs
     id="defs2" />
  <sodipodi:namedview
     id="base"
     pagecolor="#ffffff"
     bordercolor="#666666"
     borderopacity="1.0"
     inkscape:pageopacity="0.0"
     inkscape:pageshadow="2"
     inkscape:zoom="1.4"
     inkscape:cx="48.054682"
     inkscape:cy="851.90048"
     inkscape:document-units="mm"
     inkscape:current-layer="layer1"
     showgrid="false"
     inkscape:window-width="2560"
     inkscape:window-height="1377"
     inkscape:window-x="1912"
     inkscape:window-y="-8"
     inkscape:window-maximized="1" />
  <metadata
     id="metadata5">
    <rdf:RDF>
      <cc:Work
         rdf:about="">
        <dc:format>image/svg+xml</dc:format>
        <dc:type
           rdf:resource="http://purl.org/dc/dcmitype/StillImage" />
        <dc:title></dc:title>
      </cc:Work>
    </rdf:RDF>
  </metadata>
  <g
     inkscape:label="Ebene 1"
     inkscape:groupmode="layer"
     id="layer1">
    <path
       style="fill:#202124;stroke-width:0.2578125;fill-opacity:1"
       d="M 114.78516 118.51953 C 105.67149 118.51953 98.285156 125.90586 98.285156 135.01953 L 98.285156 217.51953 C 98.285156 226.6332 105.67149 234.01953 114.78516 234.01953 L 217.18945 234.01953 C 224.41337 234.01953 230.28516 228.46883 230.28516 221.64453 L 230.28516 212.75391 L 212.39648 194.83789 C 212.15247 194.5939 211.93763 194.33864 211.73633 194.07617 C 210.22409 195.801 208.00869 196.89453 205.53516 196.89453 C 200.97961 196.89453 197.28516 193.20008 197.28516 188.64453 C 197.28516 184.08898 200.97961 180.39453 205.53516 180.39453 C 208.53775 180.39453 211.1584 182.00567 212.60156 184.4043 L 230.28516 166.74805 L 230.28516 155.64453 C 230.28516 148.82024 224.41337 143.26953 217.18945 143.26953 L 118.91016 143.26953 C 116.63109 143.26953 114.78516 141.42359 114.78516 139.14453 C 114.78516 136.86547 116.63109 135.01953 118.91016 135.01953 L 217.91016 135.01953 C 220.18922 135.01953 222.03516 133.17359 222.03516 130.89453 C 222.03516 124.05992 216.49476 118.51953 209.66016 118.51953 L 114.78516 118.51953 z "
       transform="scale(0.26458333)"
       id="path815" />
    <path
       id="path826-0"
       d="m 85.377471,49.216326 v 1.853714 c 0,0.511707 -0.15689,0.948587 -0.47067,1.310642 -0.31378,0.362059 -0.72169,0.543088 -1.22375,0.543088 H 66.00401 l 4.243297,4.257778 c 0.366882,0.347583 0.550323,0.78205 0.550323,1.303402 0,0.52136 -0.183441,0.955826 -0.550323,1.303397 l -1.08617,1.10065 c -0.357236,0.357236 -0.791704,0.535854 -1.303403,0.535854 -0.502049,0 -0.941343,-0.178618 -1.317882,-0.535854 L 57.111915,51.44658 c -0.357236,-0.357199 -0.535854,-0.791665 -0.535854,-1.303397 0,-0.502068 0.178618,-0.941373 0.535854,-1.317915 l 9.427937,-9.413423 c 0.366882,-0.366887 0.806176,-0.55033 1.317882,-0.55033 0.50205,0 0.936518,0.183443 1.303403,0.55033 l 1.08617,1.07166 c 0.366882,0.366887 0.550323,0.80619 0.550323,1.317911 0,0.511685 -0.183441,0.950971 -0.550323,1.31786 l -4.243297,4.243336 h 17.679041 c 0.50205,0 0.90997,0.181022 1.22375,0.543066 0.31378,0.362045 0.47067,0.798927 0.47067,1.310648 z"
       inkscape:connector-curvature="0"
       style="stroke-width:0.01448226;fill:#2e9556;fill-opacity:1"
       sodipodi:nodetypes="sscsccsccsccsccsccsccscs" />
    <path
       style="fill:#202124;fill-opacity:1;stroke-width:0.25781092"
       d="M 114.78516 262.44922 C 105.67148 262.44922 98.285156 269.83568 98.285156 278.94922 L 98.285156 361.44922 C 98.285156 370.56279 105.67148 377.94922 114.78516 377.94922 L 217.1875 377.94922 C 224.41141 377.94922 230.28516 372.39842 230.28516 365.57422 L 230.28516 344.30469 L 218.01367 344.30469 C 215.98897 344.30469 214.34353 343.57534 213.07812 342.11523 C 212.15723 341.05266 211.57689 339.82751 211.32617 338.44531 C 209.83649 339.9143 207.79205 340.82422 205.53516 340.82422 C 200.9796 340.82422 197.28516 337.12972 197.28516 332.57422 C 197.28516 328.01872 200.9796 324.32422 205.53516 324.32422 C 207.89555 324.32422 210.01952 325.32063 211.52344 326.91016 C 211.83189 325.86246 212.34547 324.91371 213.07812 324.06836 C 214.34353 322.60831 215.98901 321.87695 218.01367 321.87695 L 230.28516 321.87695 L 230.28516 299.57422 C 230.28516 292.74998 224.41141 287.19922 217.1875 287.19922 L 118.91016 287.19922 C 116.63109 287.19922 114.78516 285.35327 114.78516 283.07422 C 114.78516 280.7952 116.63109 278.94922 118.91016 278.94922 L 217.91016 278.94922 C 220.18922 278.94922 222.03516 277.10324 222.03516 274.82422 C 222.03516 267.9897 216.49476 262.44922 209.66016 262.44922 L 114.78516 262.44922 z "
       transform="scale(0.26458333)"
       id="path863" />
    <path
       id="path826-0-8-6"
       d="m 56.018729,87.20959 v 1.85371 c 0,0.51171 0.15689,0.94859 0.47067,1.31064 0.31378,0.36206 0.721688,0.54309 1.223748,0.54309 h 17.679042 l -4.243297,4.25778 c -0.366882,0.34759 -0.550323,0.78205 -0.550323,1.3034 0,0.52136 0.183441,0.95583 0.550323,1.3034 l 1.08617,1.10065 c 0.357236,0.35724 0.791704,0.53586 1.303403,0.53586 0.502049,0 0.941343,-0.17862 1.317882,-0.53586 l 9.427934,-9.44242 c 0.35724,-0.3572 0.53586,-0.79166 0.53586,-1.3034 0,-0.50206 -0.17862,-0.94137 -0.53586,-1.31791 l -9.427934,-9.41342 c -0.366882,-0.36689 -0.806176,-0.55033 -1.317882,-0.55033 -0.50205,0 -0.936518,0.18344 -1.303403,0.55033 l -1.08617,1.07166 c -0.366882,0.36688 -0.550323,0.80619 -0.550323,1.31791 0,0.51168 0.183441,0.95097 0.550323,1.31786 l 4.243297,4.24333 H 57.713147 c -0.50205,0 -0.909968,0.18103 -1.223748,0.54307 -0.31378,0.36204 -0.47067,0.79893 -0.47067,1.31065 z"
       inkscape:connector-curvature="0"
       style="fill:#0077e3;fill-opacity:1;stroke-width:0.01448226"
       sodipodi:nodetypes="sscsccsccsccsccsccsccscs" />
  </g>
</svg>
