<?xml version="1.0" encoding="UTF-8" standalone="no"?>
<!-- Created with Inkscape (http://www.inkscape.org/) -->

<svg
   xmlns:dc="http://purl.org/dc/elements/1.1/"
   xmlns:cc="http://creativecommons.org/ns#"
   xmlns:rdf="http://www.w3.org/1999/02/22-rdf-syntax-ns#"
   xmlns:svg="http://www.w3.org/2000/svg"
   xmlns="http://www.w3.org/2000/svg"
   xmlns:sodipodi="http://sodipodi.sourceforge.net/DTD/sodipodi-0.dtd"
   xmlns:inkscape="http://www.inkscape.org/namespaces/inkscape"
   width="85.30938mm"
   height="75.833527mm"
   viewBox="0 0 85.30938 75.833527"
   version="1.1"
   id="svg8"
   inkscape:version="0.92.3 (2405546, 2018-03-11)"
   sodipodi:docname="shared_outgo.svg">
  <defs
     id="defs2" />
  <sodipodi:namedview
     id="base"
     pagecolor="#ffffff"
     bordercolor="#666666"
     borderopacity="1.0"
     inkscape:pageopacity="0.0"
     inkscape:pageshadow="2"
     inkscape:zoom="1.4"
     inkscape:cx="46.322211"
     inkscape:cy="45.260788"
     inkscape:document-units="mm"
     inkscape:current-layer="layer1"
     showgrid="false"
     inkscape:window-width="2560"
     inkscape:window-height="1377"
     inkscape:window-x="1912"
     inkscape:window-y="-8"
     inkscape:window-maximized="1"
     fit-margin-top="0"
     fit-margin-left="0"
     fit-margin-right="0"
     fit-margin-bottom="0" />
  <metadata
     id="metadata5">
    <rdf:RDF>
      <cc:Work
         rdf:about="">
        <dc:format>image/svg+xml</dc:format>
        <dc:type
           rdf:resource="http://purl.org/dc/dcmitype/StillImage" />
        <dc:title />
      </cc:Work>
    </rdf:RDF>
  </metadata>
  <g
     inkscape:label="Ebene 1"
     inkscape:groupmode="layer"
     id="layer1"
     transform="translate(-29.033668,-15.824643)">
    <path
       id="path815-1"
       d="m 66.947094,30.04343 h 18.958381 c 0.799801,0 1.584796,0.05924 2.354978,0.118492 0,-0.04445 0.01483,-0.07406 0.01483,-0.118492 0,-7.849957 -6.368824,-14.218787 -14.218775,-14.218787 -7.849954,0 -14.218789,6.36883 -14.218789,14.218787 0,0.311033 0.07406,0.60726 0.08887,0.918298 2.251287,-0.577641 4.591465,-0.918298 7.020505,-0.918298 z"
       inkscape:connector-curvature="0"
       style="fill:#ffcc00;stroke-width:0.14811236"
       sodipodi:nodetypes="sscssscs" />
    <path
       id="path815"
       d="m 111.97325,49.001814 h -4.36931 c -1.3034,-2.962249 -3.19923,-5.58384 -5.53941,-7.775902 l 2.79933,-11.182482 h -4.7396 c -4.354502,0 -8.205425,1.999514 -10.812199,5.080255 -1.125658,-0.162923 -2.236498,-0.340658 -3.406586,-0.340658 H 66.947094 c -11.463897,0 -21.017145,8.146179 -23.224019,18.958379 h -6.398454 c -2.192063,0 -3.924978,-1.999514 -3.480641,-4.265636 0.325848,-1.688481 1.91065,-2.843757 3.628754,-2.843757 h 0.148112 c 0.48877,0 0.888674,-0.399901 0.888674,-0.888674 v -2.962244 c 0,-0.488774 -0.399904,-0.888674 -0.888674,-0.888674 -4.221203,0 -7.983256,3.021492 -8.516461,7.198261 -0.651694,5.065443 3.288095,9.390322 8.220236,9.390322 h 5.924495 c 0,7.731463 3.762054,14.529818 9.479191,18.854703 v 11.952665 c 0,1.303392 1.066409,2.369801 2.369798,2.369801 h 9.479191 c 1.303389,0 2.369798,-1.066409 2.369798,-2.369801 v -7.109394 h 18.958381 v 7.109394 c 0,1.303392 1.066409,2.369801 2.369796,2.369801 h 9.479195 c 1.303387,0 2.369794,-1.066409 2.369794,-2.369801 V 77.335707 c 1.74773,-1.318199 3.30291,-2.873382 4.63592,-4.635918 h 7.21307 c 1.30339,0 2.3698,-1.066409 2.3698,-2.369796 V 51.37161 c 0,-1.303387 -1.06641,-2.369796 -2.3698,-2.369796 z m -18.958382,9.47919 c -1.303387,0 -2.369796,-1.066409 -2.369796,-2.369796 0,-1.303393 1.066409,-2.369802 2.369796,-2.369802 1.303387,0 2.369796,1.066409 2.369796,2.369802 0,1.303387 -1.066409,2.369796 -2.369796,2.369796 z"
       inkscape:connector-curvature="0"
       style="fill:#dd4c39;fill-opacity:1;stroke-width:0.14811236"
       sodipodi:nodetypes="scccscsscscssssscsccssssccssssccsssssssss" />
  </g>
</svg>
